<?xml version="1.0" encoding="iso-8859-1"?>
<!-- Generator: Adobe Illustrator 19.0.0, SVG Export Plug-In . SVG Version: 6.00 Build 0)  -->
<svg version="1.1" id="Layer_1" xmlns="http://www.w3.org/2000/svg" xmlns:xlink="http://www.w3.org/1999/xlink" x="0px" y="0px"
	 viewBox="0 0 512.001 512.001" style="enable-background:new 0 0 512.001 512.001;" xml:space="preserve">
<g>
	<path style="fill:#2196F3;" d="M264.734,247.262c-40.059-40.059-40.059-105.243-0.001-145.301l59.831-59.831
		c40.061-40.059,105.243-40.059,145.301-0.001c40.061,40.061,40.061,105.243,0.001,145.303l-59.831,59.831
		C369.977,287.322,304.795,287.322,264.734,247.262z M435.679,76.319c-21.209-21.209-55.716-21.209-76.925,0l-59.831,59.831
		c-21.208,21.208-21.208,55.715,0,76.923l0.001,0.001c21.209,21.209,55.716,21.209,76.924,0.001l59.831-59.831
		C456.888,132.034,456.888,97.527,435.679,76.319z"/>
	<path style="fill:#2196F3;" d="M42.132,469.865c-40.059-40.059-40.059-105.243,0-145.302l59.831-59.831
		c40.059-40.059,105.242-40.059,145.301,0c40.061,40.061,40.061,105.243,0.001,145.302l-59.831,59.831
		C147.375,509.925,82.192,509.925,42.132,469.865z M213.076,298.921c-21.209-21.209-55.716-21.209-76.924-0.001l-59.831,59.832
		c-21.209,21.209-21.209,55.716-0.001,76.924l0.001,0.001c21.209,21.209,55.716,21.209,76.925,0l59.831-59.831
		C234.285,354.637,234.285,320.13,213.076,298.921z"/>
</g>
<path style="fill:#00BCD4;" d="M161.981,350.016c-9.442-9.442-9.442-24.748,0-34.188L315.83,161.979
	c9.442-9.442,24.748-9.442,34.188,0c9.442,9.442,9.442,24.748,0,34.188L196.17,350.016
	C186.729,359.458,171.422,359.458,161.981,350.016z"/>
<path style="fill:#231F20;" d="M478.415,33.581c-44.773-44.771-117.624-44.77-162.398,0.001l-59.831,59.831
	c-35.811,35.812-42.936,89.57-21.457,132.57l-8.743,8.743c-43-21.48-96.757-14.354-132.57,21.457l-59.831,59.831
	C11.928,337.674,0,366.51,0,397.215s11.928,59.541,33.585,81.198c21.657,21.657,50.493,33.585,81.198,33.585
	s59.541-11.928,81.199-33.585l59.831-59.831c35.811-35.811,42.936-89.569,21.457-132.57l8.722-8.722
	c16.121,8.06,33.753,12.101,51.395,12.101c29.402,0,58.813-11.195,81.197-33.578l59.831-59.831
	c21.657-21.658,33.585-50.495,33.585-81.199S500.072,55.239,478.415,33.581z M358.567,153.433
	c-6.849-6.85-15.956-10.623-25.641-10.623c-9.687,0-18.794,3.773-25.643,10.621l-10.915,10.915
	c1.788-7.204,5.482-14.028,11.102-19.648l59.831-59.831c8.247-8.247,19.081-12.372,29.914-12.372
	c10.834,0,21.668,4.124,29.915,12.372c16.495,16.495,16.495,43.335,0,59.83L367.3,204.528c-5.621,5.621-12.444,9.315-19.65,11.102
	l10.914-10.914c6.85-6.849,10.623-15.956,10.623-25.643C369.188,169.387,365.415,160.28,358.567,153.433z M324.377,170.525
	c2.283-2.283,5.319-3.54,8.547-3.54c3.227,0,6.264,1.257,8.547,3.542c2.283,2.283,3.54,5.319,3.54,8.546
	c0,3.229-1.257,6.265-3.542,8.547l-153.846,153.85c-4.713,4.711-12.382,4.713-17.097,0c-4.712-4.713-4.712-12.382,0-17.095
	L324.377,170.525z M153.433,358.563C153.433,358.565,153.433,358.565,153.433,358.563c7.071,7.07,16.356,10.603,25.643,10.603
	s18.573-3.534,25.643-10.602l10.914-10.914c-1.787,7.204-5.48,14.026-11.101,19.647L144.7,427.129
	c-16.495,16.495-43.336,16.495-59.831,0c-7.974-7.974-12.364-18.598-12.364-29.914s4.391-21.941,12.366-29.915l59.831-59.831
	c5.624-5.624,12.453-9.328,19.663-11.116l-10.93,10.93C139.296,321.418,139.296,344.426,153.433,358.563z M238.718,401.486
	l-59.831,59.831c-17.092,17.093-39.858,26.506-64.104,26.506s-47.012-9.413-64.103-26.506
	c-17.093-17.092-26.506-39.858-26.506-64.103c0-24.248,9.413-47.013,26.506-64.104l59.831-59.831
	c17.673-17.673,40.887-26.51,64.102-26.51c11.243,0,22.476,2.095,33.086,6.246l-19.334,19.334
	c-4.471-0.938-9.073-1.421-13.751-1.421h-0.001c-17.772,0-34.469,6.907-47.009,19.445l-59.831,59.831
	c-12.54,12.541-19.446,29.236-19.446,47.011c0,17.775,6.907,34.47,19.446,47.01c12.54,12.54,29.235,19.446,47.01,19.446
	s34.47-6.907,47.011-19.446l59.831-59.831c12.54-12.541,19.446-29.235,19.445-47.01c0-4.678-0.484-9.28-1.421-13.75l19.323-19.323
	C271.676,336.834,264.948,375.256,238.718,401.486z M461.319,178.884l-59.831,59.831c-26.23,26.23-64.653,32.958-97.178,20.254
	l19.324-19.324c4.471,0.938,9.073,1.421,13.751,1.421h0.001c17.772,0,34.469-6.907,47.009-19.445l59.831-59.831
	c25.921-25.921,25.921-68.099,0-94.019c-25.921-25.918-68.096-25.921-94.019,0l-59.831,59.831
	c-12.54,12.541-19.446,29.235-19.445,47.01c0,4.678,0.483,9.28,1.421,13.751l-19.324,19.324
	c-12.704-32.525-5.976-70.949,20.254-97.178l59.831-59.831c17.676-17.676,40.886-26.512,64.104-26.512
	c23.212,0,46.432,8.84,64.103,26.51C496.668,86.023,496.668,143.538,461.319,178.884z"/>
<g>
</g>
<g>
</g>
<g>
</g>
<g>
</g>
<g>
</g>
<g>
</g>
<g>
</g>
<g>
</g>
<g>
</g>
<g>
</g>
<g>
</g>
<g>
</g>
<g>
</g>
<g>
</g>
<g>
</g>
</svg>
