<?xml version="1.0" encoding="iso-8859-1"?>
<!-- Generator: Adobe Illustrator 19.0.0, SVG Export Plug-In . SVG Version: 6.00 Build 0)  -->
<svg version="1.1" id="Layer_1" xmlns="http://www.w3.org/2000/svg" xmlns:xlink="http://www.w3.org/1999/xlink" x="0px" y="0px"
	 viewBox="0 0 512 512" style="enable-background:new 0 0 512 512;" xml:space="preserve">
<g>
	<g>
		<path d="M501.801,93.495H10.199C4.567,93.495,0,98.061,0,103.694v304.611c0,5.633,4.567,10.199,10.199,10.199h491.602
			c5.632,0,10.199-4.566,10.199-10.199V103.694C512,98.061,507.433,93.495,501.801,93.495z M474.711,113.893L256,305.767
			L37.29,113.893H474.711z M20.398,126.21l176.213,154.591L20.398,389.988V126.21z M46.025,398.105l166.617-103.24l36.631,32.137
			c1.925,1.688,4.324,2.532,6.726,2.532s4.802-0.845,6.726-2.532l36.632-32.138l166.617,103.241H46.025z M491.602,389.988
			L315.389,280.8l176.213-154.59V389.988z"/>
	</g>
</g>
<g>
	<g>
		<path d="M471.139,249.822c-5.632,0-10.199,4.566-10.199,10.199v89.474c0,5.633,4.567,10.199,10.199,10.199
			c5.632,0,10.199-4.566,10.199-10.199v-89.474C481.338,254.389,476.771,249.822,471.139,249.822z"/>
	</g>
</g>
<g>
	<g>
		<path d="M471.139,212.625c-5.632,0-10.199,4.566-10.199,10.199v6.033c0,5.633,4.567,10.199,10.199,10.199
			c5.632,0,10.199-4.566,10.199-10.199v-6.033C481.338,217.191,476.771,212.625,471.139,212.625z"/>
	</g>
</g>
<g>
</g>
<g>
</g>
<g>
</g>
<g>
</g>
<g>
</g>
<g>
</g>
<g>
</g>
<g>
</g>
<g>
</g>
<g>
</g>
<g>
</g>
<g>
</g>
<g>
</g>
<g>
</g>
<g>
</g>
</svg>
