<?xml version="1.0" encoding="iso-8859-1"?>
<!-- Generator: Adobe Illustrator 18.0.0, SVG Export Plug-In . SVG Version: 6.00 Build 0)  -->
<!DOCTYPE svg PUBLIC "-//W3C//DTD SVG 1.1//EN" "http://www.w3.org/Graphics/SVG/1.1/DTD/svg11.dtd">
<svg version="1.1" id="Capa_1" xmlns="http://www.w3.org/2000/svg" xmlns:xlink="http://www.w3.org/1999/xlink" x="0px" y="0px"
	 viewBox="0 0 217.762 217.762" style="enable-background:new 0 0 217.762 217.762;" xml:space="preserve">
<path d="M108.881,5.334C48.844,5.334,0,45.339,0,94.512c0,28.976,16.84,55.715,45.332,72.454
	c-3.953,18.48-12.812,31.448-12.909,31.588l-9.685,13.873l16.798-2.153c1.935-0.249,47.001-6.222,79.122-26.942
	c26.378-1.92,50.877-11.597,69.181-27.364c19.296-16.623,29.923-38.448,29.923-61.455C217.762,45.339,168.918,5.334,108.881,5.334z
	 M115.762,168.489l-2.049,0.117l-1.704,1.145c-18.679,12.548-43.685,19.509-59.416,22.913c3.3-7.377,6.768-17.184,8.499-28.506
	l0.809-5.292l-4.741-2.485C30.761,142.547,15,119.42,15,94.512c0-40.901,42.115-74.178,93.881-74.178s93.881,33.276,93.881,74.178
	C202.762,133.194,164.547,165.688,115.762,168.489z"/>
<g>
</g>
<g>
</g>
<g>
</g>
<g>
</g>
<g>
</g>
<g>
</g>
<g>
</g>
<g>
</g>
<g>
</g>
<g>
</g>
<g>
</g>
<g>
</g>
<g>
</g>
<g>
</g>
<g>
</g>
</svg>
