<?xml version="1.0" encoding="iso-8859-1"?>
<!-- Generator: Adobe Illustrator 16.0.0, SVG Export Plug-In . SVG Version: 6.00 Build 0)  -->
<!DOCTYPE svg PUBLIC "-//W3C//DTD SVG 1.1//EN" "http://www.w3.org/Graphics/SVG/1.1/DTD/svg11.dtd">
<svg version="1.1" id="Capa_1" xmlns="http://www.w3.org/2000/svg" xmlns:xlink="http://www.w3.org/1999/xlink" x="0px" y="0px"
	 width="596.455px" height="596.455px" viewBox="0 0 596.455 596.455" style="enable-background:new 0 0 596.455 596.455;"
	 xml:space="preserve">
<g>
	<g>
		<g>
			<path d="M491.278,114.191c-23.477-23.576-50.854-42.113-81.371-55.097c-18.699-7.956-38.167-13.623-58.114-16.931
				c-2.751-9.092-7.696-17.41-14.567-24.296C326.214,6.832,310.966,0.502,295.389,0.5c-14.573-0.002-28.588,5.437-39.464,15.315
				l-57.291,52.038c-8.021,7.287-13.805,16.613-16.841,26.831c-6.686-2.544-13.823-3.875-20.997-3.875
				c-13.603,0-26.88,4.769-37.39,13.429c-7.87,6.484-13.583,11.517-17.466,15.384c-23.576,23.476-42.113,50.853-55.097,81.37
				c-13.458,31.632-20.319,65.207-20.392,99.793c-0.074,34.586,6.646,68.189,19.971,99.878
				c12.854,30.571,31.275,58.026,54.752,81.602c23.477,23.576,50.854,42.113,81.371,55.097
				c18.698,7.955,38.169,13.623,58.115,16.931c2.751,9.095,7.698,17.412,14.57,24.3c11.012,11.035,26.262,17.364,41.84,17.364
				c14.572,0,28.585-5.438,39.458-15.315l57.291-52.037c8.021-7.287,13.805-16.613,16.841-26.831
				c6.686,2.545,13.823,3.874,20.997,3.874c13.603,0,26.88-4.769,37.39-13.428c7.869-6.485,13.583-11.517,17.466-15.384
				c23.576-23.477,42.113-50.854,55.097-81.37c13.458-31.632,20.318-65.207,20.392-99.792c0.073-34.586-6.646-68.19-19.971-99.878
				C533.176,165.222,514.754,137.767,491.278,114.191z M382.124,378.782c-9.399,8.186-15.92,19.145-18.683,31.228l-22.509-20.62
				c-10.897-9.982-24.974-15.481-39.637-15.482c-15.057-0.002-29.407,5.67-40.41,15.972c-4.843,4.533-8.822,9.766-11.862,15.588
				c-15.126-5.472-28.899-14.261-40.603-26.015c-15.211-15.275-25.551-34.339-29.903-55.131
				c-4.447-21.245-2.542-43.995,5.504-65.849c7.517-16.11,17.709-29.83,30.307-40.801c9.399-8.186,15.92-19.145,18.682-31.227
				l22.51,20.62c10.898,9.984,24.977,15.482,39.642,15.482c15.053,0,29.402-5.672,40.404-15.972
				c4.843-4.534,8.822-9.765,11.862-15.589c15.126,5.472,28.899,14.261,40.604,26.015c15.211,15.275,25.551,34.339,29.902,55.131
				c4.447,21.245,2.543,43.995-5.503,65.85C404.914,354.092,394.722,367.812,382.124,378.782z M369.015,496.892l-57.291,52.038
				c-3.183,2.891-6.958,4.187-10.654,4.187c-8.254,0-16.114-6.461-16.094-16.06l0.014-6.804c0.018-8.406-6.479-15.34-14.86-15.986
				c-23.069-1.78-45.479-7.249-66.813-16.326c-25.415-10.813-48.221-26.258-67.786-45.905
				c-19.564-19.646-34.913-42.519-45.618-67.979c-11.09-26.375-16.683-54.361-16.622-83.183c0.062-28.82,5.771-56.783,16.973-83.111
				c10.813-25.415,26.257-48.221,45.905-67.785c3.325-3.311,9.025-8.183,14.481-12.679c2.995-2.468,6.587-3.65,10.146-3.65
				c5.292,0,10.509,2.615,13.574,7.505l14.845,23.688c4.17,6.655,2.903,15.365-3.019,20.522
				c-16.963,14.771-31.192,33.618-41.481,56.043c-0.176,0.384-0.339,0.775-0.488,1.17c-23.009,61.246-8.644,124.441,33.838,167.104
				c24.312,24.416,55.391,39.643,89.025,43.941c0.699,0.089,1.392,0.133,2.077,0.133c8.695,0,16.001-7.008,16.02-15.958l0.01-5.059
				c0.02-9.573,7.864-15.992,16.095-15.992c3.717,0.001,7.515,1.312,10.703,4.232l57.07,52.278
				C376.005,479.616,375.982,490.563,369.015,496.892z M506.188,378.692c-10.813,25.415-26.258,48.221-45.905,67.785
				c-3.325,3.312-9.024,8.183-14.48,12.679c-2.995,2.469-6.588,3.65-10.146,3.65c-5.292,0-10.509-2.615-13.573-7.505l-14.845-23.688
				c-4.17-6.654-2.903-15.365,3.019-20.522c16.963-14.771,31.192-33.618,41.481-56.043c0.177-0.384,0.339-0.775,0.488-1.171
				c23.009-61.246,8.644-124.441-33.839-167.103c-24.312-24.416-55.39-39.643-89.024-43.941c-0.698-0.09-1.392-0.133-2.076-0.133
				c-8.695,0-16.001,7.008-16.02,15.958l-0.011,5.058c-0.021,9.574-7.864,15.992-16.094,15.992c-3.717,0-7.515-1.311-10.704-4.232
				l-57.07-52.279c-6.941-6.358-6.917-17.305,0.05-23.634l57.291-52.038c3.183-2.891,6.958-4.187,10.655-4.187
				c8.253,0.001,16.114,6.461,16.093,16.06l-0.014,6.803c-0.018,8.407,6.479,15.34,14.86,15.987
				c23.069,1.78,45.479,7.249,66.813,16.327c25.414,10.812,48.222,26.257,67.785,45.905c19.564,19.647,34.913,42.519,45.618,67.979
				c11.09,26.375,16.683,54.361,16.621,83.182C523.102,324.402,517.39,352.364,506.188,378.692z"/>
			<path d="M301.071,596.455c-15.709,0-31.088-6.383-42.194-17.511c-6.761-6.776-11.807-15.143-14.604-24.211
				c-19.854-3.317-39.341-9.008-57.923-16.913c-30.577-13.009-58.007-31.582-81.529-55.204
				c-23.521-23.62-41.979-51.128-54.859-81.761c-13.352-31.75-20.083-65.42-20.01-100.072c0.073-34.653,6.947-68.294,20.432-99.988
				c13.01-30.578,31.583-58.008,55.204-81.528c3.896-3.88,9.621-8.922,17.501-15.415c10.598-8.733,23.989-13.543,37.708-13.543
				c7.061,0,14.013,1.251,20.673,3.719c3.135-10.215,8.947-19.385,16.829-26.545l57.291-52.038C266.554,5.485,280.686,0,295.381,0
				c15.717,0.002,31.095,6.386,42.198,17.514c6.76,6.774,11.804,15.139,14.602,24.207c19.855,3.318,39.342,9.008,57.922,16.914
				c30.577,13.008,58.008,31.582,81.53,55.204c23.521,23.621,41.979,51.129,54.859,81.76c13.351,31.749,20.083,65.419,20.01,100.073
				c-0.073,34.654-6.947,68.294-20.432,99.987c-13.009,30.577-31.582,58.007-55.204,81.529c-3.885,3.869-9.609,8.912-17.5,15.415
				c-10.6,8.732-23.991,13.542-37.708,13.542c-7.063,0-14.015-1.251-20.673-3.718c-3.136,10.215-8.946,19.384-16.829,26.545
				l-57.291,52.037C329.901,590.97,315.769,596.455,301.071,596.455z M160.796,91.309c-13.487,0-26.652,4.729-37.072,13.314
				c-7.855,6.473-13.557,11.495-17.431,15.353c-23.529,23.429-42.03,50.752-54.99,81.211c-13.432,31.57-20.279,65.08-20.352,99.598
				c-0.074,34.519,6.632,68.057,19.932,99.683c12.83,30.514,31.215,57.915,54.646,81.443c23.431,23.53,50.754,42.031,81.212,54.989
				c18.604,7.915,38.119,13.601,58,16.897l0.307,0.051l0.09,0.298c2.731,9.026,7.726,17.356,14.446,24.091
				c10.919,10.942,26.04,17.218,41.486,17.218c14.448,0,28.342-5.393,39.122-15.186l57.291-52.037
				c7.879-7.157,13.652-16.357,16.697-26.604l0.153-0.517l0.504,0.191c6.696,2.55,13.701,3.842,20.819,3.842
				c13.485,0,26.651-4.729,37.071-13.313c7.867-6.483,13.568-11.505,17.432-15.353c23.53-23.431,42.031-50.754,54.989-81.211
				c13.432-31.569,20.278-65.079,20.352-99.598c0.073-34.52-6.633-68.059-19.932-99.684c-12.83-30.512-31.216-57.913-54.646-81.443
				c-23.431-23.53-50.755-42.031-81.212-54.989c-18.604-7.915-38.117-13.601-58.001-16.898l-0.307-0.051l-0.09-0.298
				c-2.731-9.026-7.726-17.355-14.442-24.088C325.953,7.278,310.834,1.002,295.389,1c-14.454,0-28.347,5.393-39.128,15.186
				L198.97,68.223c-7.879,7.157-13.653,16.356-16.697,26.603l-0.154,0.517l-0.503-0.192
				C174.917,92.602,167.913,91.309,160.796,91.309z M301.069,553.616c-4.416,0-8.742-1.798-11.869-4.932
				c-3.056-3.062-4.734-7.192-4.725-11.629l0.014-6.804c0.017-8.061-6.307-14.862-14.399-15.486
				c-23.107-1.783-45.64-7.29-66.971-16.365c-25.476-10.839-48.335-26.32-67.944-46.013c-19.61-19.691-34.994-42.616-45.724-68.138
				c-11.116-26.437-16.722-54.488-16.661-83.377c0.062-28.889,5.786-56.917,17.013-83.306
				c10.838-25.475,26.319-48.334,46.012-67.944c3.601-3.585,9.881-8.891,14.516-12.71c2.946-2.427,6.662-3.764,10.464-3.764
				c5.728,0,10.96,2.894,13.998,7.74l14.845,23.688c4.334,6.918,3.025,15.819-3.114,21.165
				c-17.37,15.125-31.284,33.924-41.355,55.875c-0.172,0.374-0.33,0.754-0.475,1.138c-11.136,29.643-13.771,60.848-7.619,90.242
				c6.036,28.837,20.332,55.232,41.343,76.333c24.227,24.33,54.911,39.475,88.734,43.798c0.671,0.086,1.349,0.129,2.013,0.129
				c8.54,0,15.502-6.935,15.52-15.459l0.01-5.059c0.017-8.106,6.229-16.491,16.595-16.491c4.108,0.001,7.926,1.51,11.041,4.363
				l57.07,52.278c3.412,3.126,5.364,7.572,5.354,12.199c-0.01,4.626-1.979,9.063-5.404,12.174L312.06,549.3
				C308.951,552.124,305.15,553.616,301.069,553.616z M160.795,134.149c-3.622,0-7.021,1.223-9.828,3.536
				c-4.618,3.806-10.873,9.09-14.446,12.648c-19.601,19.518-35.009,42.271-45.797,67.626
				c-11.174,26.265-16.871,54.162-16.933,82.916c-0.061,28.754,5.518,56.675,16.583,82.988
				c10.68,25.401,25.993,48.219,45.511,67.819c19.518,19.601,42.271,35.009,67.627,45.798c21.231,9.033,43.657,14.513,66.656,16.288
				c8.61,0.664,15.34,7.905,15.322,16.485l-0.014,6.804c-0.009,4.169,1.565,8.047,4.433,10.92c2.941,2.948,7.01,4.639,11.162,4.639
				c3.828,0,7.396-1.402,10.318-4.057l57.291-52.038c3.217-2.922,5.067-7.09,5.076-11.436c0.009-4.347-1.824-8.523-5.03-11.459
				l-57.07-52.278c-2.928-2.683-6.512-4.101-10.365-4.102c-9.741,0-15.579,7.878-15.595,15.493l-0.01,5.059
				c-0.019,9.074-7.429,16.457-16.52,16.457c-0.707,0-1.426-0.046-2.14-0.137c-34.046-4.352-64.931-19.596-89.316-44.085
				c-21.148-21.237-35.538-47.806-41.613-76.833c-6.191-29.579-3.542-60.978,7.661-90.799c0.153-0.407,0.32-0.809,0.501-1.204
				c10.131-22.08,24.13-40.992,41.608-56.211c5.766-5.021,6.995-13.382,2.923-19.88l-14.845-23.688
				C171.092,136.867,166.176,134.149,160.795,134.149z M435.656,463.307c-5.728,0-10.96-2.894-13.997-7.739l-14.845-23.688
				c-4.335-6.918-3.025-15.818,3.114-21.165c17.369-15.125,31.283-33.924,41.355-55.875c0.172-0.373,0.329-0.754,0.475-1.139
				c11.136-29.643,13.771-60.848,7.618-90.241c-6.036-28.837-20.332-55.232-41.344-76.332
				c-24.226-24.331-54.909-39.476-88.733-43.798c-0.664-0.085-1.342-0.129-2.013-0.129c-8.54,0-15.502,6.935-15.52,15.458
				l-0.011,5.058c-0.018,8.106-6.229,16.491-16.594,16.491c-4.108,0-7.926-1.509-11.042-4.363l-57.07-52.279
				c-3.411-3.125-5.362-7.57-5.353-12.197c0.009-4.627,1.979-9.064,5.405-12.176l57.291-52.038
				c3.108-2.824,6.908-4.316,10.989-4.316c4.417,0,8.744,1.799,11.872,4.934c3.056,3.062,4.733,7.192,4.724,11.627l-0.014,6.803
				c-0.017,8.06,6.308,14.863,14.398,15.487c23.109,1.783,45.642,7.29,66.971,16.365c25.477,10.839,48.337,26.32,67.944,46.012
				c19.61,19.693,34.995,42.618,45.725,68.137c11.116,26.438,16.722,54.49,16.66,83.377c-0.061,28.885-5.785,56.913-17.014,83.306
				c-10.839,25.475-26.319,48.335-46.013,67.944c-3.603,3.587-9.882,8.892-14.515,12.71
				C443.176,461.97,439.459,463.307,435.656,463.307z M327.287,142.2c0.714,0,1.434,0.046,2.14,0.137
				c34.046,4.351,64.931,19.595,89.315,44.084c21.148,21.237,35.538,47.806,41.613,76.833c6.191,29.58,3.543,60.978-7.661,90.799
				c-0.153,0.407-0.32,0.81-0.502,1.204c-10.131,22.08-24.13,40.992-41.607,56.211c-5.766,5.021-6.995,13.382-2.923,19.88
				l14.845,23.688c2.853,4.553,7.769,7.271,13.149,7.271c3.623,0,7.021-1.223,9.828-3.536c4.617-3.805,10.871-9.087,14.446-12.647
				c19.601-19.519,35.01-42.271,45.798-67.626c11.176-26.27,16.873-54.167,16.934-82.917c0.062-28.752-5.518-56.673-16.582-82.987
				c-10.68-25.4-25.992-48.218-45.512-67.819c-19.517-19.601-42.27-35.009-67.626-45.798c-21.229-9.033-43.656-14.513-66.656-16.288
				c-8.61-0.665-15.34-7.906-15.322-16.486l0.014-6.803c0.009-4.168-1.565-8.046-4.432-10.919c-2.941-2.948-7.01-4.639-11.162-4.64
				c-3.829,0-7.397,1.403-10.318,4.057l-57.291,52.038c-3.217,2.922-5.068,7.091-5.077,11.438
				c-0.009,4.346,1.824,8.522,5.028,11.458l57.07,52.279c2.928,2.683,6.512,4.101,10.366,4.101c9.741,0,15.578-7.877,15.594-15.493
				l0.011-5.058C310.786,149.583,318.197,142.2,327.287,142.2z M363.737,410.959l-23.143-21.2
				c-10.806-9.898-24.763-15.351-39.299-15.352l-0.008-0.5v0.5c-14.925,0-29.153,5.624-40.061,15.837
				c-4.791,4.483-8.748,9.684-11.761,15.454l-0.203,0.388l-0.411-0.149c-15.314-5.539-29.037-14.331-40.788-26.132
				c-15.279-15.344-25.666-34.494-30.038-55.381c-4.463-21.321-2.553-44.187,5.524-66.125c7.561-16.208,17.799-29.99,30.448-41.005
				c9.349-8.141,15.754-18.848,18.523-30.961l0.191-0.838l23.144,21.201c10.806,9.899,24.764,15.351,39.304,15.351
				c14.926,0,29.154-5.624,40.062-15.837c4.793-4.486,8.749-9.687,11.761-15.455l0.202-0.387l0.411,0.148
				c15.314,5.54,29.037,14.332,40.788,26.132c15.279,15.344,25.666,34.495,30.037,55.381c4.464,21.322,2.554,44.188-5.523,66.125
				c-7.56,16.208-17.798,29.991-30.447,41.005c-9.348,8.142-15.753,18.848-18.523,30.962L363.737,410.959z M301.288,373.407h0.008
				c14.787,0.001,28.983,5.546,39.975,15.613l21.88,20.045c2.917-11.98,9.352-22.566,18.646-30.66
				c12.543-10.922,22.697-24.594,30.182-40.635c7.995-21.724,9.892-44.398,5.467-65.536c-4.332-20.697-14.625-39.674-29.768-54.881
				c-11.541-11.59-25-20.251-40.01-25.748c-3.038,5.714-6.992,10.872-11.76,15.334c-11.095,10.387-25.565,16.107-40.746,16.107
				c-14.791,0-28.989-5.545-39.979-15.614l-21.881-20.044c-2.917,11.98-9.351,22.566-18.645,30.66
				c-12.543,10.922-22.698,24.594-30.183,40.635c-7.996,21.723-9.892,44.397-5.468,65.535c4.333,20.697,14.626,39.675,29.769,54.881
				c11.541,11.59,25,20.251,40.01,25.748c3.04-5.716,6.994-10.873,11.759-15.334C271.638,379.127,286.108,373.407,301.288,373.407z"
				/>
		</g>
	</g>
</g>
<g>
</g>
<g>
</g>
<g>
</g>
<g>
</g>
<g>
</g>
<g>
</g>
<g>
</g>
<g>
</g>
<g>
</g>
<g>
</g>
<g>
</g>
<g>
</g>
<g>
</g>
<g>
</g>
<g>
</g>
</svg>
